<?xml version="1.0" encoding="utf-8"?>
<!-- Generator: Adobe Illustrator 15.0.0, SVG Export Plug-In . SVG Version: 6.00 Build 0)  -->
<!DOCTYPE svg PUBLIC "-//W3C//DTD SVG 1.1//EN" "http://www.w3.org/Graphics/SVG/1.1/DTD/svg11.dtd">
<svg version="1.1" id="圖層_1" xmlns="http://www.w3.org/2000/svg" xmlns:xlink="http://www.w3.org/1999/xlink" x="0px" y="0px"
	 width="180px" height="180px" viewBox="0 0 180 180" enable-background="new 0 0 180 180" xml:space="preserve">
<g id="圖層_2">
	
		<path opacity="0.85" fill="#FEF7FA" stroke="#E8474D" stroke-linecap="round" stroke-linejoin="round" stroke-miterlimit="10" enable-background="new    " d="
		M148.854,100.656h0.021l-0.114,0.146c-5.631,9.575-48.294,69.968-53.255,75.397c-1.339,1.517-3.317,2.47-5.504,2.47
		c-2.261,0-4.291-1.017-5.651-2.627c-0.011-0.021-48.032-66.063-53.118-75.24l-0.083-0.146C16.57,75.27,20.243,42.463,42.208,20.833
		c26.391-26.004,69.192-26.004,95.583,0C159.757,42.463,163.43,75.27,148.854,100.656z"/>
</g>
<g id="圖層_1_1_">
	<g>
		<path fill="#FFFFFF" d="M58.095,37.606c0,0,31.322-23.173,63.613,0.39l0.193,39.143c0,0-4.254,26.29-33.063,32.132
			c0,0-23.396-5.258-30.743-31.548V37.606z"/>
		<g>
			<g>
				<g>
					<g>
						<defs>
							<path id="SVGID_1_" d="M76.885,102.161c-8.61-5.885-14.475-14.169-17.438-24.627V38.322
								c2.719-1.825,15.156-9.537,31.101-9.537c10.559,0,20.583,3.333,29.808,9.913l0.187,38.323
								c-0.153,0.843-1.36,6.756-5.509,13.256c-5.931,9.287-14.737,15.209-26.168,17.596
								C87.667,107.555,82.579,106.051,76.885,102.161 M57.294,36.507l-0.553,0.408V77.91l0.052,0.181
								c3.903,13.976,12.309,22.07,18.671,26.393c6.9,4.691,12.83,6.06,13.078,6.114l0.282,0.064l0.281-0.058
								c15.347-3.112,23.81-11.974,28.208-18.855c4.763-7.458,5.88-14.116,5.924-14.396l0.021-0.112l-0.198-39.947l-0.558-0.406
								c-9.852-7.189-20.599-10.835-31.953-10.835C71.637,26.059,57.87,36.082,57.294,36.507"/>
						</defs>
						<clipPath id="SVGID_2_">
							<use xlink:href="#SVGID_1_"  overflow="visible"/>
						</clipPath>
						
							<linearGradient id="SVGID_3_" gradientUnits="userSpaceOnUse" x1="-946.6724" y1="120.8516" x2="-946.1354" y2="120.8516" gradientTransform="matrix(0 154.8907 -154.8907 0 18808.7344 146656.3906)">
							<stop  offset="0" style="stop-color:#FFFFFF"/>
							<stop  offset="0.7204" style="stop-color:#B1B0B0"/>
							<stop  offset="1" style="stop-color:#6B6A6A"/>
						</linearGradient>
						<rect x="56.741" y="26.059" clip-path="url(#SVGID_2_)" fill="url(#SVGID_3_)" width="66.515" height="84.607"/>
					</g>
				</g>
			</g>
		</g>
		<path fill="#EEEEEF" d="M88.804,99.195c-14.025-1.651-22.772-13.22-27.524-22.215v0.871c6.611,23.656,27.663,28.384,27.663,28.384
			c20.723-4.197,27.324-20.153,29.142-26.387C105.726,98.709,88.804,99.195,88.804,99.195"/>
		<path fill="#818182" d="M59.462,78.438l-0.121-5.014l-0.1-5.013c-0.029-1.673-0.073-3.343-0.086-5.017l-0.058-5.015l-0.121-10.029
			l-0.062-10.029l-0.003-0.293l0.24-0.161c1.156-0.791,2.331-1.46,3.533-2.118c1.197-0.656,2.418-1.264,3.659-1.832l0.931-0.424
			l0.941-0.402c0.623-0.273,1.259-0.512,1.894-0.767c1.271-0.488,2.561-0.925,3.86-1.335c1.305-0.4,2.616-0.763,3.942-1.074
			c0.657-0.176,1.329-0.292,1.993-0.437c0.666-0.147,1.339-0.256,2.011-0.368l1.008-0.164l1.014-0.126
			c0.677-0.075,1.354-0.18,2.031-0.217c0.68-0.049,1.357-0.109,2.036-0.143l2.044-0.059c0.677-0.013,1.36,0.021,2.042,0.029
			c0.679-0.001,1.36,0.058,2.04,0.114c1.36,0.078,2.708,0.292,4.054,0.462c1.337,0.263,2.682,0.473,3.996,0.838l0.985,0.246
			l0.494,0.127l0.489,0.153l1.946,0.612c0.646,0.205,1.275,0.476,1.909,0.709c0.636,0.24,1.271,0.477,1.886,0.782l1.845,0.856
			c0.615,0.292,1.199,0.639,1.801,0.953c1.209,0.614,2.348,1.367,3.497,2.077c0.586,0.341,1.123,0.763,1.677,1.154l1.649,1.188
			l-1.706-1.097c-0.57-0.361-1.13-0.745-1.729-1.066c-1.174-0.663-2.333-1.362-3.559-1.921c-0.605-0.29-1.2-0.609-1.817-0.873
			l-1.864-0.774c-0.615-0.274-1.253-0.48-1.884-0.71c-0.639-0.214-1.259-0.466-1.904-0.653l-1.934-0.558l-0.481-0.138l-0.499-0.109
			l-0.976-0.221c-1.301-0.33-2.632-0.501-3.948-0.726c-1.327-0.138-2.656-0.318-3.991-0.356c-0.665-0.04-1.332-0.079-2.002-0.073
			c-0.668,0-1.335-0.024-2.005-0.002l-2.002,0.081c-0.665,0.041-1.33,0.113-1.996,0.167c-0.665,0.043-1.324,0.159-1.99,0.238
			l-0.991,0.136l-0.986,0.17c-0.661,0.11-1.32,0.219-1.972,0.368c-0.65,0.143-1.31,0.264-1.955,0.438
			c-1.299,0.314-2.588,0.677-3.864,1.073c-1.275,0.402-2.54,0.846-3.788,1.323c-0.625,0.244-1.252,0.479-1.865,0.743l-0.925,0.391
			l-0.916,0.414c-1.219,0.553-2.421,1.145-3.599,1.782c-1.175,0.634-2.35,1.309-3.441,2.032l0.238-0.458l-0.063,10.03l-0.121,10.03
			l-0.06,5.015c-0.012,1.672-0.057,3.343-0.086,5.016l-0.099,5.015L59.462,78.438z"/>
		<path fill="#D8D9D9" d="M61.443,84.153c0.636,1.425,1.422,2.774,2.244,4.092c0.424,0.653,0.85,1.3,1.305,1.932
			c0.225,0.313,0.455,0.627,0.691,0.935c0.228,0.313,0.47,0.614,0.713,0.916c0.241,0.304,0.489,0.603,0.738,0.902
			c0.247,0.301,0.496,0.599,0.754,0.882c0.507,0.586,1.037,1.152,1.574,1.707l0.816,0.823l0.84,0.802
			c0.575,0.521,1.144,1.046,1.741,1.534c0.586,0.507,1.203,0.971,1.809,1.449c0.626,0.448,1.24,0.919,1.886,1.341
			c0.631,0.448,1.283,0.854,1.94,1.266c0.654,0.405,1.325,0.784,1.998,1.158c0.682,0.355,1.355,0.736,2.057,1.058l1.044,0.5
			l1.061,0.456c0.701,0.318,1.431,0.57,2.146,0.854c0.72,0.271,1.456,0.499,2.183,0.748l-0.16-0.011
			c0.853-0.138,1.733-0.341,2.592-0.565c0.863-0.236,1.717-0.487,2.563-0.774c0.845-0.285,1.679-0.602,2.509-0.941
			c0.825-0.346,1.638-0.71,2.438-1.111c0.807-0.392,1.594-0.813,2.37-1.261c0.777-0.446,1.537-0.922,2.286-1.41l1.106-0.764
			c0.361-0.26,0.718-0.532,1.078-0.802c0.363-0.256,0.699-0.557,1.052-0.836l0.523-0.419l0.507-0.443
			c0.335-0.299,0.684-0.58,1.006-0.891l0.975-0.934c0.321-0.307,0.626-0.641,0.936-0.963l0.469-0.484l0.441-0.509
			c0.292-0.338,0.602-0.672,0.88-1.017l0.842-1.057c0.287-0.349,0.538-0.719,0.802-1.085c0.26-0.369,0.538-0.727,0.781-1.104
			c0.485-0.761,1.002-1.5,1.45-2.286c0.222-0.387,0.456-0.776,0.68-1.168l0.629-1.198c0.443-0.791,0.785-1.629,1.174-2.446
			c0.376-0.823,0.705-1.669,1.058-2.506c-0.314,0.851-0.604,1.714-0.939,2.559c-0.364,0.828-0.679,1.683-1.094,2.489l-0.592,1.229
			c-0.207,0.402-0.433,0.797-0.643,1.197c-0.423,0.81-0.913,1.575-1.391,2.352c-0.234,0.386-0.511,0.753-0.761,1.13
			c-0.259,0.375-0.51,0.756-0.792,1.118l-0.826,1.082c-0.281,0.361-0.58,0.702-0.871,1.053l-0.438,0.521l-0.46,0.505
			c-0.311,0.334-0.614,0.672-0.932,1.003l-0.971,0.961c-0.319,0.326-0.668,0.617-1,0.929c-0.334,0.314-0.678,0.61-1.029,0.899
			c-0.354,0.287-0.697,0.588-1.063,0.859c-0.368,0.271-0.726,0.551-1.093,0.82l-1.122,0.782c-0.758,0.501-1.521,0.993-2.312,1.447
			c-0.782,0.461-1.582,0.899-2.401,1.304c-0.81,0.406-1.634,0.787-2.477,1.143c-0.836,0.357-1.686,0.683-2.543,0.985
			c-0.86,0.3-1.731,0.565-2.616,0.798c-0.882,0.229-1.759,0.431-2.687,0.565l-0.085,0.017l-0.079-0.027
			c-0.737-0.26-1.48-0.504-2.209-0.779c-0.727-0.291-1.463-0.556-2.173-0.881l-1.073-0.475l-1.058-0.512
			c-0.707-0.33-1.388-0.715-2.081-1.083c-0.679-0.388-1.359-0.778-2.02-1.195c-0.661-0.42-1.321-0.838-1.957-1.295
			c-0.649-0.438-1.26-0.932-1.887-1.399c-0.605-0.502-1.218-0.982-1.801-1.507c-0.595-0.508-1.16-1.05-1.728-1.585l-0.831-0.826
			l-0.808-0.851c-0.531-0.575-1.051-1.155-1.551-1.76c-0.255-0.295-0.505-0.599-0.743-0.91c-0.248-0.304-0.482-0.611-0.715-0.928
			c-0.236-0.312-0.465-0.631-0.688-0.949c-0.228-0.318-0.448-0.641-0.664-0.971c-0.437-0.645-0.845-1.311-1.244-1.981
			C62.74,86.996,62.013,85.609,61.443,84.153"/>
		<path fill="#EEEEEF" d="M116.233,39.188C88.013,20.6,61.278,40.37,61.278,40.37v32.02C69.225,59.861,88.493,35.456,116.233,39.188
			"/>
		<path fill="#E50012" d="M107.58,55.533H97.231V40.759c0-2.321-1.331-4.221-2.961-4.221h-7.13c-1.626,0-2.958,1.899-2.958,4.221
			V55.53h-10.35c-1.625,0-2.958,1.899-2.958,4.221v10.176c0,2.318,1.333,4.221,2.958,4.221h10.35V88.92
			c0,2.321,1.331,4.222,2.958,4.222h7.13c1.63,0,2.961-1.9,2.961-4.222V74.148h10.349c1.625,0,2.953-1.902,2.953-4.22V59.753
			C110.533,57.432,109.205,55.533,107.58,55.533"/>
		<path fill="#E50012" d="M110.604,88.742c0,0-2.294,1.436-4.785-0.937c-1.563-1.482-1.752-3.354-1.631-5.345l0.027-0.022
			c1.966-0.187,3.829-0.053,5.343,1.468C111.996,86.349,110.604,88.742,110.604,88.742 M104.303,81.1
			c0.082-0.755,0.167-1.515,0.208-2.268c0.038-0.654-0.036-1.275-0.185-1.853l-1.094,1.147c0.021,0.138,0.035,0.28,0.045,0.428
			c0.066,0.81-0.082,1.733-0.227,2.727l-0.047,0.054c-0.988,0.177-1.9,0.354-2.706,0.316c-0.147-0.005-0.287-0.019-0.43-0.035
			l-1.095,1.148c0.576,0.122,1.197,0.178,1.845,0.12c0.752-0.068,1.515-0.184,2.27-0.28l-0.006-0.006
			c-0.182,1.904-0.046,3.964,1.717,5.866c3.625,3.918,6.962,1.26,6.962,1.26s2.622-3.533-1.382-7.059
			c-1.939-1.708-3.973-1.787-5.845-1.542L104.303,81.1z"/>
		<path fill="#E50012" d="M110.604,40.493c0,0,1.392,2.398-1.041,4.835c-1.518,1.522-3.38,1.653-5.349,1.467l-0.026-0.02
			c-0.121-1.993,0.07-3.862,1.629-5.347C108.311,39.059,110.604,40.493,110.604,40.493 M104.326,48.115
			c1.881,0.242,3.914,0.166,5.853-1.541c4.004-3.528,1.384-7.059,1.384-7.059s-3.338-2.66-6.968,1.259
			c-1.76,1.905-1.893,3.96-1.717,5.868l0.009-0.001c-0.753-0.103-1.517-0.216-2.269-0.285c-0.649-0.057-1.267-0.004-1.846,0.121
			l1.096,1.147c0.143-0.016,0.281-0.029,0.43-0.036c0.806-0.036,1.72,0.14,2.703,0.316l0.048,0.057
			c0.145,0.991,0.293,1.919,0.229,2.727c-0.013,0.146-0.025,0.287-0.045,0.426l1.096,1.146c0.144-0.579,0.223-1.197,0.185-1.853
			c-0.044-0.754-0.128-1.515-0.21-2.269L104.326,48.115z"/>
		<path fill="#E50012" d="M69.097,88.742c0,0-1.392-2.393,1.041-4.833c1.52-1.521,3.382-1.654,5.349-1.468l0.027,0.021
			c0.125,1.991-0.065,3.862-1.628,5.346C71.392,90.18,69.097,88.742,69.097,88.742 M75.372,81.122
			c-1.875-0.244-3.91-0.164-5.847,1.542c-4.004,3.526-1.384,7.058-1.384,7.058s3.336,2.66,6.962-1.259
			c1.762-1.901,1.897-3.962,1.711-5.866l-0.003,0.006c0.755,0.1,1.516,0.214,2.274,0.28c0.646,0.059,1.266,0.001,1.842-0.121
			l-1.101-1.147c-0.139,0.017-0.28,0.028-0.424,0.034c-0.807,0.038-1.723-0.138-2.707-0.317l-0.05-0.053
			c-0.143-0.995-0.292-1.92-0.226-2.728c0.01-0.146,0.028-0.288,0.05-0.428l-1.1-1.147c-0.143,0.578-0.217,1.2-0.181,1.854
			c0.042,0.754,0.129,1.515,0.207,2.269L75.372,81.122z"/>
		<path fill="#E50012" d="M69.097,40.493c0,0,2.292-1.433,4.787,0.936c1.564,1.482,1.751,3.354,1.628,5.345l-0.027,0.021
			c-1.968,0.186-3.828,0.055-5.35-1.467C67.708,42.891,69.097,40.493,69.097,40.493 M75.396,48.138
			c-0.077,0.754-0.165,1.513-0.207,2.269c-0.036,0.654,0.038,1.274,0.181,1.853l1.1-1.146c-0.022-0.14-0.039-0.281-0.051-0.425
			c-0.064-0.809,0.084-1.737,0.227-2.728l0.05-0.056c0.983-0.176,1.898-0.354,2.708-0.317c0.143,0.006,0.286,0.02,0.424,0.036
			l1.101-1.147c-0.578-0.125-1.199-0.18-1.847-0.121c-0.756,0.068-1.518,0.181-2.272,0.284l0.005,0.001
			c0.185-1.906,0.05-3.961-1.713-5.868c-3.626-3.918-6.961-1.259-6.961-1.259s-2.621,3.534,1.383,7.06
			c1.937,1.706,3.972,1.783,5.848,1.54L75.396,48.138z"/>
	</g>
</g>
</svg>
